<svg width="1128" height="450" xmlns="http://www.w3.org/2000/svg" xml:space="preserve" version="1.1">
 <desc>Created with Fabric.js 1.7.22</desc>

 <g>
  <title>Layer 1</title>
  <rect fill="#8e8b8b" x="-1" y="0" width="1128" height="450" id="svg_9" stroke="#000"/>
  <g id="svg_10" stroke="null">
   <path id="svg_3" fill-rule=" nonzero" fill=" rgb(0,0,0)" stroke-miterlimit="10" stroke-linejoin=" miter" stroke-dasharray=" none" stroke-linecap=" butt" d="m678.36413,348.5362c-2.11659,0 -4.23591,-0.8126 -5.84737,-2.43778l-228.72828,-230.60053c-3.2037,-3.22566 -3.18174,-8.44163 0.04667,-11.64532s8.44437,-3.18174 11.64807,0.04667l228.72828,230.60053c3.2037,3.22841 3.18174,8.44163 -0.04941,11.64532c-1.60323,1.59498 -3.70059,2.39111 -5.79796,2.39111z" stroke=" none"/>
   <ellipse transform="matrix(2.74524 0 0 2.74524 521.481 -146.036)" id="svg_4" fill-rule=" nonzero" fill=" rgb(0,0,0)" stroke-miterlimit="10" stroke-linejoin=" miter" stroke-linecap=" butt" stroke-dasharray=" none" ry="3.185" rx="3.159" cy="119.88109" cx="44.96723" stroke=" none"/>
   <path id="svg_5" fill-rule=" nonzero" fill=" rgb(0,0,0)" stroke-miterlimit="10" stroke-linejoin=" miter" stroke-dasharray=" none" stroke-linecap=" butt" d="m643.98818,313.87749l-172.32998,0c-17.19896,0 -31.19421,-14.07761 -31.19421,-31.38363l0,-106.20801c0,-17.30327 13.99526,-31.38363 31.19421,-31.38363l12.49635,0c1.51812,0 3.01154,-0.26629 4.43906,-0.78789c4.26885,-1.57028 9.00165,0.63415 10.5637,4.90575c1.56205,4.2716 -0.63415,9.00165 -4.90575,10.5637c-3.24763,1.18869 -6.6435,1.7899 -10.09701,1.7899l-12.49635,0c-8.11768,0 -14.72275,6.69016 -14.72275,14.91216l0,106.20801c0,8.22201 6.60505,14.91216 14.72275,14.91216l172.32722,0c4.54887,0 8.23573,3.68686 8.23573,8.23573s-3.68411,8.23573 -8.23299,8.23573l0.00001,0l0.00001,0.00002z" stroke=" none"/>
   <path id="svg_6" fill-rule=" nonzero" fill=" rgb(0,0,0)" stroke-miterlimit="10" stroke-linejoin=" miter" stroke-dasharray=" none" stroke-linecap=" butt" d="m564,285.54382c-33.14883,0 -60.1181,-27.16145 -60.1181,-60.54362c0,-16.15851 6.24543,-31.35343 17.58603,-42.78738c3.2037,-3.22841 8.41417,-3.25312 11.64807,-0.04667c3.22841,3.2037 3.25037,8.41692 0.04667,11.64807c-8.26044,8.32633 -12.80931,19.40338 -12.80931,31.18598c0,24.30365 19.57908,44.07215 43.64665,44.07215c11.64532,0 22.5961,-4.57632 30.83733,-12.88343c3.20095,-3.2339 8.41692,-3.25037 11.64532,-0.04941c3.23115,3.2037 3.25312,8.41692 0.04941,11.64532c-11.35708,11.45316 -26.46141,17.75898 -42.53207,17.75898l0.00001,0l-0.00001,0.00001z" stroke=" none"/>
   <path id="svg_7" fill-rule=" nonzero" fill=" rgb(0,0,0)" stroke-miterlimit="10" stroke-linejoin=" miter" stroke-dasharray=" none" stroke-linecap=" butt" d="m674.94082,304.29384c-1.66087,0 -3.34096,-0.50238 -4.79594,-1.54557c-3.6951,-2.6519 -4.53789,-7.79924 -1.88598,-11.49434c1.83382,-2.55582 2.80564,-5.58383 2.80564,-8.76007l0,-106.20801c0,-8.22201 -6.60505,-14.91216 -14.72275,-14.91216l-12.49635,0c-10.93431,0 -20.92426,-6.02856 -26.06884,-15.73574l-3.77471,-7.11293c-3.22566,-6.08346 -9.46286,-9.86092 -16.28754,-9.86092l-67.42869,0c-5.37519,0 -10.47311,2.36091 -13.98702,6.47603c-2.95388,3.45901 -8.14788,3.8708 -11.60964,0.91691c-3.45901,-2.95388 -3.8708,-8.15063 -0.91691,-11.60964c6.64624,-7.78826 16.31224,-12.25477 26.51632,-12.25477l67.43144,0c12.93559,0 24.75387,7.13489 30.83733,18.61824l3.77471,7.11293c2.28129,4.30454 6.69291,6.97841 11.51631,6.97841l12.49635,0c17.19621,0 31.19147,14.08036 31.19147,31.38363l0,106.20801c0,6.6435 -2.03971,12.99325 -5.89679,18.36568c-1.60871,2.24012 -4.13433,3.4343 -6.69839,3.4343l-0.00002,-0.00001l0,0.00002z" stroke=" none"/>
   <path id="svg_8" fill-rule=" nonzero" fill=" rgb(0,0,0)" stroke-miterlimit="10" stroke-linejoin=" miter" stroke-dasharray=" none" stroke-linecap=" butt" d="m614.93801,243.27529c-0.51611,0 -1.0377,-0.05216 -1.56205,-0.15098c-4.46651,-0.85926 -7.3902,-5.17753 -6.53368,-9.64404c0.53533,-2.78368 0.80711,-5.63873 0.80711,-8.4828c0,-24.3009 -19.58182,-44.07215 -43.64665,-44.07215c-2.94016,0 -5.87482,0.29375 -8.7189,0.87848c-4.45553,0.91691 -8.80675,-1.9601 -9.72091,-6.41564c-0.91417,-4.45828 1.9601,-8.80675 6.41564,-9.72091c3.93119,-0.80435 7.97493,-1.21339 12.02417,-1.21339c33.14883,0 60.1181,27.1587 60.1181,60.54362c0,3.88726 -0.37061,7.78826 -1.10084,11.59317c-0.76043,3.94217 -4.21121,6.68193 -8.082,6.68467l0,-0.00002l0.00001,-0.00001z" stroke=" none"/>
  </g>
 </g>
</svg>