<svg width="1250" height="512" xmlns="http://www.w3.org/2000/svg" xml:space="preserve" version="1.1">
 <desc>Created with Fabric.js 1.7.22</desc>

 <g>
  <title>Layer 1</title>
  <rect id="svg_9" height="512" width="1250" y="0" x="-3" stroke="#000" fill="#0fffff"/>
  <g id="svg_10">
   <path id="svg_3" fill-rule=" nonzero" fill=" rgb(0,0,0)" stroke-miterlimit="10" stroke-linejoin=" miter" stroke-dasharray=" none" stroke=" none" stroke-linecap=" butt" d="m741.6785,382.0362c-2.15942,0 -4.32163,-0.82904 -5.9657,-2.48711l-233.35704,-235.26718c-3.26853,-3.29094 -3.24613,-8.61246 0.04761,-11.88099s8.61526,-3.24613 11.88379,0.04761l233.35704,235.26718c3.26853,3.29374 3.24613,8.61246 -0.05041,11.88099c-1.63567,1.62726 -3.77548,2.4395 -5.91529,2.4395z"/>
   <ellipse transform="matrix(2.8008 0 0 2.8008 1.964 1.964)" id="svg_4" fill-rule=" nonzero" fill=" rgb(0,0,0)" stroke-miterlimit="10" stroke-linejoin=" miter" stroke-linecap=" butt" stroke-dasharray=" none" stroke=" none" ry="3.185" rx="3.159" cy="75.42631" cx="251.92831"/>
   <path id="svg_5" fill-rule=" nonzero" fill=" rgb(0,0,0)" stroke-miterlimit="10" stroke-linejoin=" miter" stroke-dasharray=" none" stroke=" none" stroke-linecap=" butt" d="m706.60689,346.67611l-175.81741,0c-17.54701,0 -31.82549,-14.3625 -31.82549,-32.01874l0,-108.35734c0,-17.65344 14.27848,-32.01874 31.82549,-32.01874l12.74924,0c1.54884,0 3.07248,-0.27168 4.52889,-0.80383c4.35524,-1.60206 9.18382,0.64698 10.77748,5.00503c1.59366,4.35804 -0.64698,9.18382 -5.00503,10.77748c-3.31335,1.21275 -6.77794,1.82612 -10.30134,1.82612l-12.74924,0c-8.28196,0 -15.02069,6.82555 -15.02069,15.21394l0,108.35734c0,8.3884 6.73872,15.21394 15.02069,15.21394l175.8146,0c4.64093,0 8.4024,3.76147 8.4024,8.4024s-3.75867,8.4024 -8.3996,8.4024z"/>
   <path id="svg_6" fill-rule=" nonzero" fill=" rgb(0,0,0)" stroke-miterlimit="10" stroke-linejoin=" miter" stroke-dasharray=" none" stroke=" none" stroke-linecap=" butt" d="m624.99999,317.76905c-33.81966,0 -61.33471,-27.71111 -61.33471,-61.76884c0,-16.48551 6.37182,-31.98793 17.94192,-43.65327c3.26853,-3.29374 8.58445,-3.31895 11.88379,-0.04761c3.29374,3.26853 3.31615,8.58725 0.04761,11.88379c-8.42761,8.49483 -13.06853,19.79605 -13.06853,31.81709c0,24.79548 19.9753,44.96404 44.52992,44.96404c11.88099,0 23.05338,-4.66893 31.46138,-13.14415c3.26573,-3.29934 8.58725,-3.31615 11.88099,-0.05041c3.29654,3.26853 3.31895,8.58725 0.05041,11.88099c-11.58691,11.68494 -26.99691,18.11837 -43.39279,18.11837z"/>
   <path id="svg_7" fill-rule=" nonzero" fill=" rgb(0,0,0)" stroke-miterlimit="10" stroke-linejoin=" miter" stroke-dasharray=" none" stroke=" none" stroke-linecap=" butt" d="m738.18591,336.89851c-1.69448,0 -3.40857,-0.51255 -4.893,-1.57685c-3.76988,-2.70557 -4.62972,-7.95707 -1.92415,-11.72695c1.87093,-2.60754 2.86242,-5.69683 2.86242,-8.93735l0,-108.35734c0,-8.3884 -6.73872,-15.21394 -15.02069,-15.21394l-12.74924,0c-11.15559,0 -21.3477,-6.15056 -26.59639,-16.05418l-3.8511,-7.25687c-3.29094,-6.20657 -9.65436,-10.06047 -16.61715,-10.06047l-68.79324,0c-5.48397,0 -10.68505,2.40869 -14.27007,6.60709c-3.01366,3.52901 -8.31277,3.94913 -11.84458,0.93547c-3.52901,-3.01366 -3.94913,-8.31557 -0.93547,-11.84458c6.78074,-7.94587 16.64235,-12.50277 27.05293,-12.50277l68.79605,0c13.19737,0 25.25481,7.27928 31.46138,18.99502l3.8511,7.25687c2.32746,4.39165 6.82835,7.11963 11.74936,7.11963l12.74924,0c17.54421,0 31.82269,14.3653 31.82269,32.01874l0,108.35734c0,6.77794 -2.08099,13.25619 -6.01612,18.73735c-1.64127,2.28545 -4.218,3.5038 -6.83395,3.5038z"/>
   <path id="svg_8" fill-rule=" nonzero" fill=" rgb(0,0,0)" stroke-miterlimit="10" stroke-linejoin=" miter" stroke-dasharray=" none" stroke=" none" stroke-linecap=" butt" d="m676.96883,274.64514c-0.52655,0 -1.0587,-0.05322 -1.59366,-0.15404c-4.5569,-0.87665 -7.53975,-5.28231 -6.6659,-9.83921c0.54616,-2.84001 0.82344,-5.75284 0.82344,-8.65447c0,-24.79268 -19.9781,-44.96404 -44.52992,-44.96404c-2.99966,0 -5.99371,0.29969 -8.89534,0.89626c-4.5457,0.93547 -8.98497,-1.99977 -9.91763,-6.54547c-0.93267,-4.5485 1.99977,-8.98497 6.54547,-9.91763c4.01075,-0.82063 8.13632,-1.23795 12.2675,-1.23795c33.81966,0 61.33471,27.70831 61.33471,61.76884c0,3.96593 -0.37811,7.94587 -1.12312,11.82778c-0.77582,4.02195 -4.29643,6.81715 -8.24555,6.81995z"/>
  </g>
  <text transform="matrix(1 0 0 1 0 0)" font-weight="bold" xml:space="preserve" text-anchor="start" font-family="Noto Sans JP" font-size="26" stroke-width="0" id="svg_11" y="98.4" x="480.26874" stroke="#000" fill="#000000">NO IMAGE AVAILABLE</text>
 </g>
</svg>