<svg width="342" height="513" xmlns="http://www.w3.org/2000/svg" version="1.1" xml:space="preserve">
 <desc>Created with Fabric.js 1.7.22</desc>

 <g>
  <title>Layer 1</title>
  <rect id="svg_1" height="515" width="344" y="-2.5" x="-1" stroke="#000" fill="#8e8b8b"/>
  <g stroke="null" id="svg_10">
   <path stroke=" none" d="m263.146,356.03617c-1.70539,0 -3.41298,-0.65473 -4.71137,-1.96418l-184.29201,-185.80053c-2.5813,-2.599 -2.56361,-6.80163 0.0376,-9.38292s6.80384,-2.56361 9.38514,0.0376l184.29201,185.80053c2.5813,2.60121 2.56361,6.80163 -0.03981,9.38292c-1.29176,1.28512 -2.98166,1.92658 -4.67156,1.92658z" stroke-linecap=" butt" stroke-dasharray=" none" stroke-linejoin=" miter" stroke-miterlimit="10" fill=" rgb(0,0,0)" fill-rule=" nonzero" id="svg_3"/>
   <ellipse stroke=" none" cx="-124.00868" cy="134.74023" rx="3.159" ry="3.185" stroke-dasharray=" none" stroke-linecap=" butt" stroke-linejoin=" miter" stroke-miterlimit="10" fill=" rgb(0,0,0)" fill-rule=" nonzero" id="svg_4" transform="matrix(2.21191 0 0 2.21191 510.501 -75.3202)"/>
   <path stroke=" none" d="m235.44845,328.1108l-138.85051,0c-13.85762,0 -25.13395,-11.34268 -25.13395,-25.28657l0,-85.57442c0,-13.94167 11.27632,-25.28657 25.13395,-25.28657l10.06862,0c1.22319,0 2.42647,-0.21456 3.57666,-0.63482c3.43952,-1.26522 7.25285,0.51095 8.51144,3.95269c1.25858,3.44173 -0.51095,7.25285 -3.95269,8.51144c-2.61669,0.95776 -5.35283,1.44216 -8.13541,1.44216l-10.06862,0c-6.54062,0 -11.86248,5.39043 -11.86248,12.0151l0,85.57442c0,6.62468 5.32185,12.0151 11.86248,12.0151l138.84829,0c3.66514,0 6.63573,2.97059 6.63573,6.63573s-2.96838,6.63573 -6.63352,6.63573l0.00001,0z" stroke-linecap=" butt" stroke-dasharray=" none" stroke-linejoin=" miter" stroke-miterlimit="10" fill=" rgb(0,0,0)" fill-rule=" nonzero" id="svg_5"/>
   <path stroke=" none" d="m171,305.28166c-26.70883,0 -48.43864,-21.88465 -48.43864,-48.78149c0,-13.01931 5.0321,-25.26223 14.1695,-34.47485c2.5813,-2.60121 6.77951,-2.62112 9.38514,-0.0376c2.60121,2.5813 2.61891,6.78172 0.0376,9.38514c-6.65564,6.70873 -10.32078,15.63379 -10.32078,25.12731c0,19.58205 15.77535,35.51002 35.16718,35.51002c9.38292,0 18.20624,-3.68725 24.84639,-10.3805c2.57909,-2.60563 6.78172,-2.61891 9.38292,-0.03981c2.60342,2.5813 2.62112,6.78172 0.03981,9.38292c-9.15068,9.2281 -21.32061,14.30885 -34.26914,14.30885l0.00001,0z" stroke-linecap=" butt" stroke-dasharray=" none" stroke-linejoin=" miter" stroke-miterlimit="10" fill=" rgb(0,0,0)" fill-rule=" nonzero" id="svg_6"/>
   <path stroke=" none" d="m260.38775,320.38901c-1.3382,0 -2.69189,-0.40478 -3.86421,-1.24531c-2.97724,-2.1367 -3.65629,-6.28404 -1.51958,-9.26127c1.47755,-2.05929 2.26058,-4.49903 2.26058,-7.05821l0,-85.57442c0,-6.62468 -5.32185,-12.0151 -11.86248,-12.0151l-10.06862,0c-8.81005,0 -16.85919,-4.85736 -21.0043,-12.67867l-3.04138,-5.73106c-2.599,-4.90159 -7.62446,-7.94518 -13.12327,-7.94518l-54.32896,0c-4.33093,0 -8.43844,1.90225 -11.26968,5.2179c-2.38002,2.78701 -6.56495,3.1188 -9.35417,0.73878c-2.78701,-2.38002 -3.1188,-6.56716 -0.73878,-9.35417c5.35504,-6.27519 13.14317,-9.87397 21.36485,-9.87397l54.33118,0c10.42253,0 19.9448,5.74876 24.84639,15.00118l3.04138,5.73106c1.83809,3.46827 5.39264,5.62268 9.27897,5.62268l10.06862,0c13.85541,0 25.13174,11.34489 25.13174,25.28657l0,85.57442c0,5.35283 -1.64345,10.46898 -4.75119,14.79768c-1.29618,1.80492 -3.33113,2.7671 -5.39706,2.7671l-0.00002,-0.00001z" stroke-linecap=" butt" stroke-dasharray=" none" stroke-linejoin=" miter" stroke-miterlimit="10" fill=" rgb(0,0,0)" fill-rule=" nonzero" id="svg_7"/>
   <path stroke=" none" d="m212.04201,271.22487c-0.41584,0 -0.8361,-0.04203 -1.25858,-0.12165c-3.59878,-0.69233 -5.95446,-4.17167 -5.26435,-7.77044c0.43133,-2.24288 0.65031,-4.54326 0.65031,-6.8348c0,-19.57984 -15.77756,-35.51002 -35.16718,-35.51002c-2.36896,0 -4.73349,0.23668 -7.02503,0.70781c-3.58993,0.73878 -7.09581,-1.5793 -7.83238,-5.16924c-0.73657,-3.59214 1.5793,-7.09581 5.16924,-7.83238c3.16746,-0.64809 6.4256,-0.97766 9.68817,-0.97766c26.70883,0 48.43864,21.88243 48.43864,48.78149c0,3.13206 -0.29861,6.27519 -0.88698,9.3409c-0.6127,3.17631 -3.39307,5.38379 -6.51186,5.38601l0,-0.00002z" stroke-linecap=" butt" stroke-dasharray=" none" stroke-linejoin=" miter" stroke-miterlimit="10" fill=" rgb(0,0,0)" fill-rule=" nonzero" id="svg_8"/>
  </g>
 </g>
</svg>